<svg width="69" height="69" viewBox="0 0 69 69" fill="none" xmlns="http://www.w3.org/2000/svg">
<path d="M17.25 8.625V17.25H8.625V8.625H17.25ZM4.3125 4.3125V21.5625H21.5625V4.3125H4.3125ZM38.8125 15.0938V23.7188H30.1875V15.0938H38.8125ZM25.875 10.7812V28.0312H43.125V10.7812H25.875ZM17.25 34.5V43.125H8.625V34.5H17.25ZM4.3125 30.1875V47.4375H21.5625V30.1875H4.3125Z" fill="#FCAE11"/>
<path d="M47.4375 21.5625V34.5H34.5V47.4375H21.5625V64.6875H64.6875V21.5625H47.4375ZM38.8125 38.8125H47.4375V47.4375H38.8125V38.8125ZM34.5 60.375H25.875V51.75H34.5V60.375ZM47.4375 60.375H38.8125V51.75H47.4375V60.375ZM60.375 60.375H51.75V51.75H60.375V60.375ZM60.375 47.4375H51.75V38.8125H60.375V47.4375ZM51.75 34.5V25.875H60.375V34.5H51.75Z" fill="#FCAE11"/>
</svg>
