<svg width="50" height="50" viewBox="0 0 50 50" fill="none" xmlns="http://www.w3.org/2000/svg">
<path d="M12.5002 6.25V12.5H6.25024V6.25H12.5002ZM3.12524 3.125V15.625H15.6252V3.125H3.12524ZM28.1252 10.9375V17.1875H21.8752V10.9375H28.1252ZM18.7502 7.8125V20.3125H31.2502V7.8125H18.7502ZM12.5002 25V31.25H6.25024V25H12.5002ZM3.12524 21.875V34.375H15.6252V21.875H3.12524Z" fill="#FCAE11"/>
<path d="M34.3752 15.625V25H25.0002V34.375H15.6252V46.875H46.8752V15.625H34.3752ZM28.1252 28.125H34.3752V34.375H28.1252V28.125ZM25.0002 43.75H18.7502V37.5H25.0002V43.75ZM34.3752 43.75H28.1252V37.5H34.3752V43.75ZM43.7502 43.75H37.5002V37.5H43.7502V43.75ZM43.7502 34.375H37.5002V28.125H43.7502V34.375ZM37.5002 25V18.75H43.7502V25H37.5002Z" fill="#FCAE11"/>
</svg>
