<svg width="50" height="50" viewBox="0 0 50 50" fill="none" xmlns="http://www.w3.org/2000/svg">
<path d="M25.0266 46.8657C12.9813 46.8657 3.17189 37.0766 3.15158 25.0282C3.1389 22.1544 3.69668 19.3067 4.7926 16.65C5.88852 13.9934 7.50078 11.5806 9.53595 9.55164L11.75 11.7579C10.0058 13.4972 8.6239 15.5653 7.68437 17.8424C6.74485 20.1194 6.26635 22.5603 6.27658 25.0235C6.27415 27.4868 6.7604 29.9262 7.70716 32.2003C8.65393 34.4744 10.0424 36.5381 11.7922 38.2719C13.5282 40.0116 15.5914 41.3905 17.8628 42.329C20.1342 43.2676 22.5689 43.7474 25.0266 43.7407H25.0578C27.1214 43.7428 29.1707 43.3984 31.1203 42.7219L32.1547 45.6719C29.8746 46.4639 27.4778 46.8674 25.0641 46.8657H25.0266Z" fill="#FCAE11"/>
<path d="M23.4377 24.9999H26.5627V31.2499H29.6877C30.5165 31.2499 31.3114 31.5791 31.8975 32.1652C32.4835 32.7512 32.8127 33.5461 32.8127 34.3749V39.0624H29.6877V34.3749H26.5627V39.0624H23.4377V34.3749H20.3127V39.0624H17.1877V34.3749C17.1877 33.5461 17.517 32.7512 18.103 32.1652C18.6891 31.5791 19.4839 31.2499 20.3127 31.2499H23.4377V24.9999ZM35.9377 40.6249C36.3521 40.6249 36.7496 40.7895 37.0426 41.0825C37.3356 41.3755 37.5002 41.773 37.5002 42.1874C37.5002 42.6018 37.3356 42.9992 37.0426 43.2922C36.7496 43.5853 36.3521 43.7499 35.9377 43.7499C35.5233 43.7499 35.1259 43.5853 34.8329 43.2922C34.5399 42.9992 34.3752 42.6018 34.3752 42.1874C34.3752 41.773 34.5399 41.3755 34.8329 41.0825C35.1259 40.7895 35.5233 40.6249 35.9377 40.6249ZM14.0627 6.24988C14.4771 6.24988 14.8746 6.4145 15.1676 6.70752C15.4606 7.00055 15.6252 7.39798 15.6252 7.81238C15.6252 8.22678 15.4606 8.62421 15.1676 8.91723C14.8746 9.21026 14.4771 9.37488 14.0627 9.37488C13.6483 9.37488 13.2509 9.21026 12.9579 8.91723C12.6649 8.62421 12.5002 8.22678 12.5002 7.81238C12.5002 7.39798 12.6649 7.00055 12.9579 6.70752C13.2509 6.4145 13.6483 6.24988 14.0627 6.24988Z" fill="#FCAE11"/>
<path d="M32.6877 15.7907C32.0284 12.147 28.8315 9.37512 25.0002 9.37512C21.169 9.37512 17.9721 12.147 17.3127 15.7907C15.9438 16.1171 14.7247 16.8948 13.8516 17.9986C12.9786 19.1023 12.5026 20.4678 12.5002 21.8751C12.5002 25.322 15.3034 28.1251 18.7502 28.1251H20.3127V25.0001H18.7502C17.0268 25.0001 15.6252 23.5986 15.6252 21.8751C15.6252 20.1517 17.0268 18.7501 18.7502 18.7501H20.3127V17.1876C20.3127 14.6032 22.4159 12.5001 25.0002 12.5001C27.5846 12.5001 29.6877 14.6032 29.6877 17.1876V18.7501H31.2502C32.9737 18.7501 34.3752 20.1532 34.3752 21.8751C34.3752 23.597 32.9737 25.0001 31.2502 25.0001H29.6877V28.1251H31.2502C34.6971 28.1251 37.5002 25.322 37.5002 21.8751C37.4979 20.4678 37.0219 19.1023 36.1489 17.9986C35.2758 16.8948 34.0567 16.1171 32.6877 15.7907Z" fill="#FCAE11"/>
<path d="M40.4686 40.4514L38.2592 38.2405C40.0061 36.5042 41.3913 34.4387 42.3345 32.1636C43.2778 29.8884 43.7605 27.4487 43.7545 24.9858C43.7545 14.6483 35.3436 6.23578 25.0045 6.23578C22.8952 6.23578 20.8561 6.57485 18.9405 7.24203L17.9124 4.29203C20.1936 3.50414 22.591 3.10484 25.0045 3.11078C37.067 3.11078 46.8795 12.9233 46.8795 24.9858C46.8795 30.8248 44.603 36.317 40.4686 40.4514Z" fill="#FCAE11"/>
</svg>
