<svg width="69" height="69" viewBox="0 0 69 69" fill="none" xmlns="http://www.w3.org/2000/svg">
<path d="M34.5367 64.6746C17.9141 64.6746 4.3772 51.1657 4.34917 34.5388C4.33167 30.573 5.10141 26.6431 6.61378 22.9769C8.12615 19.3108 10.3511 15.9812 13.1596 13.1812L16.215 16.2258C13.808 18.6261 11.901 21.48 10.6044 24.6224C9.30789 27.7647 8.64756 31.133 8.66167 34.5323C8.65832 37.9317 9.32934 41.298 10.6359 44.4363C11.9424 47.5746 13.8585 50.4225 16.2732 52.8152C18.669 55.2159 21.5161 57.1187 24.6507 58.414C27.7852 59.7092 31.1451 60.3713 34.5367 60.3621H34.5798C37.4276 60.3649 40.2556 59.8897 42.946 58.9562L44.3735 63.0272C41.227 64.1201 37.9193 64.677 34.5884 64.6746H34.5367Z" fill="#FCAE11"/>
<path d="M32.3438 34.5H36.6562V43.125H40.9688C42.1125 43.125 43.2094 43.5794 44.0181 44.3881C44.8269 45.1969 45.2812 46.2938 45.2812 47.4375V53.9062H40.9688V47.4375H36.6562V53.9062H32.3438V47.4375H28.0312V53.9062H23.7188V47.4375C23.7188 46.2938 24.1731 45.1969 24.9819 44.3881C25.7906 43.5794 26.8875 43.125 28.0312 43.125H32.3438V34.5ZM49.5938 56.0625C50.1656 56.0625 50.7141 56.2897 51.1185 56.694C51.5228 57.0984 51.75 57.6469 51.75 58.2188C51.75 58.7906 51.5228 59.3391 51.1185 59.7435C50.7141 60.1478 50.1656 60.375 49.5938 60.375C49.0219 60.375 48.4734 60.1478 48.069 59.7435C47.6647 59.3391 47.4375 58.7906 47.4375 58.2188C47.4375 57.6469 47.6647 57.0984 48.069 56.694C48.4734 56.2897 49.0219 56.0625 49.5938 56.0625ZM19.4062 8.625C19.9781 8.625 20.5266 8.85218 20.9309 9.25655C21.3353 9.66093 21.5625 10.2094 21.5625 10.7812C21.5625 11.3531 21.3353 11.9016 20.9309 12.3059C20.5266 12.7103 19.9781 12.9375 19.4062 12.9375C18.8344 12.9375 18.2859 12.7103 17.8816 12.3059C17.4772 11.9016 17.25 11.3531 17.25 10.7812C17.25 10.2094 17.4772 9.66093 17.8816 9.25655C18.2859 8.85218 18.8344 8.625 19.4062 8.625Z" fill="#FCAE11"/>
<path d="M45.1088 21.7911C44.1988 16.7627 39.7871 12.9375 34.5 12.9375C29.2129 12.9375 24.8012 16.7627 23.8912 21.7911C22.0022 22.2415 20.3197 23.3147 19.1149 24.8379C17.9101 26.361 17.2532 28.2455 17.25 30.1875C17.25 34.9442 21.1183 38.8125 25.875 38.8125H28.0312V34.5H25.875C23.4967 34.5 21.5625 32.5658 21.5625 30.1875C21.5625 27.8092 23.4967 25.875 25.875 25.875H28.0312V23.7188C28.0312 20.1523 30.9336 17.25 34.5 17.25C38.0664 17.25 40.9688 20.1523 40.9688 23.7188V25.875H43.125C45.5033 25.875 47.4375 27.8113 47.4375 30.1875C47.4375 32.5637 45.5033 34.5 43.125 34.5H40.9688V38.8125H43.125C47.8817 38.8125 51.75 34.9442 51.75 30.1875C51.7468 28.2455 51.0899 26.361 49.8851 24.8379C48.6803 23.3147 46.9978 22.2415 45.1088 21.7911Z" fill="#FCAE11"/>
<path d="M55.8469 55.8231L52.7979 52.772C55.2086 50.376 57.1201 47.5256 58.4218 44.3859C59.7236 41.2462 60.3896 37.8794 60.3815 34.4806C60.3815 20.2148 48.7744 8.60556 34.5065 8.60556C31.5955 8.60556 28.7816 9.07347 26.1381 9.99418L24.7192 5.92318C27.8674 4.83589 31.1758 4.28486 34.5065 4.29306C51.1527 4.29306 64.694 17.8343 64.694 34.4806C64.694 42.5385 61.5523 50.1177 55.8469 55.8231Z" fill="#FCAE11"/>
</svg>
