<svg width="23" height="23" viewBox="0 0 23 23" fill="none" xmlns="http://www.w3.org/2000/svg">
<path d="M11.5002 11.0207C10.8648 11.0207 10.2554 10.7683 9.80609 10.3189C9.35679 9.86964 9.10437 9.26025 9.10437 8.62484C9.10437 7.98942 9.35679 7.38003 9.80609 6.93073C10.2554 6.48142 10.8648 6.229 11.5002 6.229C12.1356 6.229 12.745 6.48142 13.1943 6.93073C13.6436 7.38003 13.896 7.98942 13.896 8.62484C13.896 8.93946 13.8341 9.25101 13.7137 9.54168C13.5933 9.83236 13.4168 10.0965 13.1943 10.3189C12.9718 10.5414 12.7077 10.7179 12.417 10.8383C12.1264 10.9587 11.8148 11.0207 11.5002 11.0207ZM11.5002 1.9165C9.72104 1.9165 8.01475 2.62327 6.75669 3.88133C5.49864 5.13939 4.79187 6.84568 4.79187 8.62484C4.79187 13.6561 11.5002 21.0832 11.5002 21.0832C11.5002 21.0832 18.2085 13.6561 18.2085 8.62484C18.2085 6.84568 17.5018 5.13939 16.2437 3.88133C14.9857 2.62327 13.2794 1.9165 11.5002 1.9165Z" fill="#FCAE11"/>
</svg>
