<svg width="50" height="50" viewBox="0 0 50 50" fill="none" xmlns="http://www.w3.org/2000/svg">
<g clip-path="url(#clip0_10_458)">
<path d="M2.52547 0L0 2.52374L4.4489 10.2122L7.33404 9.78934L24.945 27.3902L23.4428 28.8317C22.6734 29.6006 22.6734 30.7654 23.4428 31.5342L24.2237 32.3165C24.9931 33.0854 26.1702 33.0854 26.7472 32.3165L29.0323 34.5981C28.8399 35.7514 29.0323 37.1218 29.994 38.0829L40.3921 48.4143C42.5078 50.5286 45.97 50.5286 48.0858 48.4143C50.5862 46.1077 50.5632 42.6594 48.4474 40.5451L38.1089 30.1522C37.1472 29.1912 35.7758 28.8068 34.6218 29.1912L32.0963 26.9096C32.6733 26.1408 32.6733 24.9644 32.0963 24.3859L31.375 23.667C31.2002 23.4848 30.9902 23.3398 30.7579 23.2408C30.5255 23.1417 30.2755 23.0906 30.0228 23.0906C29.7702 23.0906 29.5202 23.1417 29.2878 23.2408C29.0554 23.3398 28.8455 23.4848 28.6707 23.667L27.4089 24.9279L9.79796 7.32903L10.2173 4.44585L2.52547 0ZM40.0324 0.0595856C36.2374 -0.255641 31.2057 2.25849 28.8515 4.44393C25.9548 7.33864 26.4279 11.1233 28.7303 14.7772L24.6449 18.8617L27.5301 22.1043C29.0688 20.7589 31.3385 20.7589 32.8772 22.1043L33.66 22.8847L33.8408 23.0654L35.5239 21.3835C39.0014 23.4267 42.6213 23.7208 45.3814 20.9626C48.0742 18.4638 50.994 12.3015 49.6476 8.64952L44.2389 14.2352C43.4695 15.004 42.3039 15.004 41.5346 14.2352L35.9432 8.64952C35.7608 8.47479 35.6157 8.26501 35.5166 8.03279C35.4175 7.80058 35.3664 7.55073 35.3664 7.29827C35.3664 7.04582 35.4175 6.79597 35.5166 6.56376C35.6157 6.33154 35.7608 6.12176 35.9432 5.94703L41.5365 0.361358C41.0556 0.192212 40.5748 0.105716 40.0324 0.0595856ZM18.8746 24.0264L11.9003 30.9941C11.1507 30.8284 10.3848 30.7478 9.61716 30.7539C4.23155 30.7539 0 34.9825 0 40.3644C0 45.7464 4.23155 49.975 9.61716 49.975C15.0028 49.975 19.2343 45.7464 19.2343 40.3644C19.2343 39.3784 19.0785 38.4308 18.8131 37.5408L22.9004 33.4563L22.3003 32.676C20.7615 31.1383 20.7731 28.8087 22.1195 27.2691L18.8746 24.0264ZM33.7812 32.7971C34.0217 32.7971 34.2486 32.8432 34.441 33.0373L45.8027 44.3893C46.1874 44.7738 46.1874 45.385 45.8027 45.7694C45.418 46.1538 44.8025 46.1538 44.4178 45.7694L33.0599 34.4174C32.6753 34.033 32.6753 33.4217 33.0599 33.0373C33.2523 32.8451 33.5408 32.7971 33.7812 32.7971ZM10.9405 35.3765L14.6065 39.042L13.2832 44.0261L8.29576 45.3485L4.62778 41.683L5.9511 36.699L10.9405 35.3765Z" fill="#FCAE11"/>
</g>
<defs>
<clipPath id="clip0_10_458">
<rect width="50" height="50" fill="white"/>
</clipPath>
</defs>
</svg>
