<svg width="69" height="69" viewBox="0 0 69 69" fill="none" xmlns="http://www.w3.org/2000/svg">
<g clip-path="url(#clip0_10_432)">
<path d="M3.48514 0L0 3.48276L6.13948 14.0928L10.121 13.5093L34.4241 37.7984L32.351 39.7878C31.2893 40.8488 31.2893 42.4562 32.351 43.5172L33.4287 44.5968C34.4904 45.6578 36.1149 45.6578 36.9112 44.5968L40.0645 47.7454C39.7991 49.3369 40.0645 51.2281 41.3917 52.5544L55.741 66.8117C58.6608 69.7294 63.4386 69.7294 66.3584 66.8117C69.809 63.6286 69.7772 58.87 66.8574 55.9523L52.5903 41.6101C51.2632 40.2838 49.3706 39.7533 47.778 40.2838L44.2929 37.1353C45.0892 36.0743 45.0892 34.4509 44.2929 33.6525L43.2975 32.6605C43.0562 32.409 42.7665 32.2089 42.4458 32.0722C42.1252 31.9356 41.7801 31.8651 41.4315 31.8651C41.0829 31.8651 40.7379 31.9356 40.4172 32.0722C40.0965 32.2089 39.8068 32.409 39.5655 32.6605L37.8243 34.4005L13.5212 10.1141L14.0998 6.13528L3.48514 0ZM55.2447 0.0822281C50.0077 -0.352785 43.0639 3.11671 39.815 6.13263C35.8176 10.1273 36.4706 15.3501 39.6478 20.3926L34.01 26.0292L37.9915 30.504C40.115 28.6472 43.2471 28.6472 45.3705 30.504L46.4509 31.5809L46.7004 31.8302L49.0229 29.5093C53.822 32.3289 58.8174 32.7347 62.6264 28.9284C66.3424 25.4801 70.3717 16.9761 68.5137 11.9363L61.0497 19.6446C59.988 20.7056 58.3794 20.7056 57.3177 19.6446L49.6016 11.9363C49.3499 11.6952 49.1497 11.4057 49.0129 11.0853C48.8761 10.7648 48.8056 10.42 48.8056 10.0716C48.8056 9.72323 48.8761 9.37844 49.0129 9.05798C49.1497 8.73753 49.3499 8.44803 49.6016 8.2069L57.3204 0.498674C56.6568 0.265252 55.9932 0.145889 55.2447 0.0822281ZM26.047 33.1565L16.4224 42.7719C15.388 42.5432 14.331 42.4319 13.2717 42.4403C5.83954 42.4403 0 48.2759 0 55.7029C0 63.13 5.83954 68.9655 13.2717 68.9655C20.7038 68.9655 26.5434 63.13 26.5434 55.7029C26.5434 54.3422 26.3283 53.0345 25.9621 51.8064L31.6025 46.1698L30.7744 45.0928C28.6509 42.9708 28.6668 39.756 30.5249 37.6313L26.047 33.1565ZM46.6181 45.2599C46.9499 45.2599 47.2631 45.3236 47.5285 45.5915L63.2077 61.2573C63.7385 61.7878 63.7385 62.6313 63.2077 63.1618C62.6768 63.6923 61.8274 63.6923 61.2966 63.1618L45.6227 47.496C45.0918 46.9655 45.0918 46.122 45.6227 45.5915C45.8881 45.3263 46.2863 45.2599 46.6181 45.2599ZM15.0979 48.8196L20.157 53.878L18.3308 60.756L11.4481 62.5809L6.38633 57.5225L8.21251 50.6446L15.0979 48.8196Z" fill="#FCAE11"/>
</g>
<defs>
<clipPath id="clip0_10_432">
<rect width="69" height="69" fill="white"/>
</clipPath>
</defs>
</svg>
