<svg width="58" height="63" viewBox="0 0 58 63" fill="none" xmlns="http://www.w3.org/2000/svg">
<path fill-rule="evenodd" clip-rule="evenodd" d="M28.9661 61.375C33.5958 61.375 41.5118 55.3375 41.5118 31.1875C41.5118 7.0375 33.5958 1 28.9661 1C24.3367 1 16.4207 7.44434 16.4207 31.1875C16.4207 54.9307 24.3367 61.375 28.9661 61.375Z" stroke="#FCAE11" stroke-width="2" stroke-linecap="round" stroke-linejoin="round"/>
<path fill-rule="evenodd" clip-rule="evenodd" d="M1.80454 47.0002C4.11935 51.0428 13.5097 54.7928 35.2391 42.1428C56.9684 29.4928 58.4428 19.4178 56.128 15.3752C53.8132 11.3325 44.0569 7.79548 22.6936 20.2325C1.33025 32.6693 -0.510208 42.9575 1.80454 47.0002Z" stroke="#FCAE11" stroke-width="2" stroke-linecap="round" stroke-linejoin="round"/>
<path fill-rule="evenodd" clip-rule="evenodd" d="M1.8045 15.3752C-0.51025 19.4178 0.964137 29.4928 22.6936 42.1428C44.423 54.7928 53.8132 51.0428 56.128 47.0002C58.4428 42.9575 56.6023 32.6693 35.2389 20.2325C13.8757 7.79548 4.11932 11.3325 1.8045 15.3752Z" stroke="#FCAE11" stroke-width="2" stroke-linecap="round" stroke-linejoin="round"/>
</svg>
