<svg width="50" height="50" viewBox="0 0 50 50" fill="none" xmlns="http://www.w3.org/2000/svg">
<path fill-rule="evenodd" clip-rule="evenodd" d="M25.0001 46.8746C28.3549 46.8746 34.0912 42.4996 34.0912 24.9996C34.0912 7.49963 28.3549 3.12463 25.0001 3.12463C21.6454 3.12463 15.9092 7.79445 15.9092 24.9996C15.9092 42.2048 21.6454 46.8746 25.0001 46.8746Z" stroke="#FCAE11" stroke-width="1.45" stroke-linecap="round" stroke-linejoin="round"/>
<path fill-rule="evenodd" clip-rule="evenodd" d="M5.31783 36.4581C6.99522 39.3876 13.7999 42.105 29.5458 32.9383C45.2916 23.7717 46.3601 16.471 44.6827 13.5415C43.0053 10.612 35.9355 8.04895 20.4549 17.0613C4.97414 26.0735 3.64047 33.5287 5.31783 36.4581Z" stroke="#FCAE11" stroke-width="1.45" stroke-linecap="round" stroke-linejoin="round"/>
<path fill-rule="evenodd" clip-rule="evenodd" d="M5.31759 13.5415C3.64024 16.471 4.70863 23.7717 20.4546 32.9383C36.2005 42.105 43.005 39.3876 44.6824 36.4581C46.3598 33.5287 45.0262 26.0735 29.5454 17.0613C14.0648 8.04895 6.995 10.612 5.31759 13.5415Z" stroke="#FCAE11" stroke-width="1.45" stroke-linecap="round" stroke-linejoin="round"/>
</svg>
