<svg width="45" height="46" viewBox="0 0 45 46" fill="none" xmlns="http://www.w3.org/2000/svg">
<path fill-rule="evenodd" clip-rule="evenodd" d="M23.6118 44.5779L23.5912 44.5818L23.4581 44.6488L23.4206 44.6565L23.3943 44.6488L23.2612 44.5818C23.2412 44.5754 23.2262 44.5786 23.2162 44.5913L23.2087 44.6105L23.1768 45.4308L23.1862 45.4692L23.205 45.4941L23.4 45.6359L23.4281 45.6436L23.4506 45.6359L23.6456 45.4941L23.6681 45.4634L23.6756 45.4308L23.6437 44.6124C23.6387 44.592 23.6281 44.5805 23.6118 44.5779ZM24.1087 44.3613L24.0843 44.3652L23.7375 44.5434L23.7187 44.5626L23.7131 44.5837L23.7468 45.4078L23.7562 45.4308L23.7712 45.4443L24.1481 45.6225C24.1718 45.6289 24.19 45.6238 24.2025 45.6072L24.21 45.5803L24.1462 44.4035C24.14 44.3805 24.1275 44.3664 24.1087 44.3613ZM22.7681 44.3652C22.7598 44.36 22.7499 44.3584 22.7405 44.3605C22.7311 44.3627 22.7228 44.3685 22.7175 44.3767L22.7062 44.4035L22.6425 45.5803C22.6437 45.6033 22.6543 45.6187 22.6743 45.6263L22.7025 45.6225L23.0793 45.4443L23.0981 45.4289L23.1056 45.4078L23.1375 44.5837L23.1318 44.5607L23.1131 44.5415L22.7681 44.3652Z" fill="#FCAE11"/>
<path fill-rule="evenodd" clip-rule="evenodd" d="M31.035 42.4216C28.335 42.32 20.6831 41.239 12.6694 33.0491C4.6575 24.8572 3.60187 17.0372 3.50062 14.2753C3.35062 10.0663 6.50437 5.97807 10.1475 4.38149C10.5862 4.18784 11.0666 4.11411 11.5416 4.16754C12.0166 4.22097 12.4699 4.39971 12.8569 4.68624C15.8569 6.92107 17.9269 10.3021 19.7044 12.9605C20.0955 13.5446 20.2627 14.2553 20.1742 14.9573C20.0856 15.6592 19.7476 16.3034 19.2244 16.767L15.5663 19.5442C15.3895 19.6747 15.2651 19.8663 15.2161 20.0834C15.1672 20.3006 15.197 20.5285 15.3 20.7249C16.1287 22.264 17.6025 24.5563 19.29 26.2813C20.9775 28.0063 23.3269 29.6125 24.9375 30.5555C25.1394 30.6714 25.3771 30.7038 25.6017 30.646C25.8263 30.5883 26.0207 30.4447 26.145 30.245L28.5262 26.5401C28.964 25.9456 29.6099 25.5474 30.3285 25.4288C31.0471 25.3101 31.7827 25.4803 32.3813 25.9037C35.0194 27.7706 38.0981 29.8502 40.3519 32.7999C40.6549 33.1984 40.8477 33.6728 40.91 34.1735C40.9724 34.6742 40.902 35.1828 40.7062 35.6462C39.1369 39.3894 35.1656 42.5768 31.035 42.4216Z" fill="#FCAE11"/>
</svg>
