<svg width="23" height="23" viewBox="0 0 23 23" fill="none" xmlns="http://www.w3.org/2000/svg">
<path fill-rule="evenodd" clip-rule="evenodd" d="M10.1688 22.4358L10.1584 22.4377L10.0911 22.4716L10.0722 22.4755L10.0589 22.4716L9.99161 22.4377C9.9815 22.4345 9.97392 22.4361 9.96886 22.4426L9.96507 22.4523L9.94896 22.8669L9.9537 22.8863L9.96317 22.8989L10.0617 22.9706L10.076 22.9745L10.0873 22.9706L10.1859 22.8989L10.1973 22.8834L10.2011 22.8669L10.185 22.4532C10.1824 22.4429 10.1771 22.4371 10.1688 22.4358ZM10.42 22.3263L10.4077 22.3282L10.2323 22.4183L10.2229 22.428L10.22 22.4387L10.2371 22.8553L10.2418 22.8669L10.2494 22.8737L10.4399 22.9638C10.4519 22.967 10.4611 22.9645 10.4674 22.9561L10.4712 22.9425L10.439 22.3476C10.4358 22.336 10.4295 22.3289 10.42 22.3263ZM9.74234 22.3282C9.73816 22.3257 9.73317 22.3248 9.7284 22.3259C9.72363 22.327 9.71946 22.3299 9.71675 22.3341L9.71106 22.3476L9.67883 22.9425C9.67946 22.9541 9.68484 22.9619 9.69495 22.9658L9.70916 22.9638L9.89967 22.8737L9.90915 22.866L9.91294 22.8553L9.92905 22.4387L9.92621 22.4271L9.91673 22.4174L9.74234 22.3282Z" fill="#FCAE11"/>
<path fill-rule="evenodd" clip-rule="evenodd" d="M13.9211 20.3457C12.5562 20.2944 8.68826 19.748 4.63735 15.608C0.587393 11.4671 0.0537802 7.51411 0.00259887 6.11797C-0.0732253 3.99035 1.52098 1.92376 3.36256 1.11669C3.58432 1.01881 3.82717 0.981538 4.06728 1.00854C4.30738 1.03555 4.5365 1.12591 4.73213 1.27074C6.24862 2.40044 7.29499 4.10952 8.19351 5.45333C8.3912 5.74857 8.47573 6.10785 8.43098 6.46269C8.38624 6.81754 8.21535 7.14315 7.95087 7.3775L6.10171 8.78138C6.01237 8.84733 5.94948 8.94418 5.92473 9.05394C5.89998 9.16371 5.91504 9.27893 5.96712 9.3782C6.38605 10.1562 7.13102 11.315 7.98404 12.1869C8.83706 13.0589 10.0247 13.8708 10.8388 14.3475C10.9409 14.4061 11.0611 14.4225 11.1746 14.3933C11.2881 14.3641 11.3864 14.2915 11.4492 14.1906L12.6529 12.3177C12.8742 12.0172 13.2007 11.8159 13.5639 11.756C13.9272 11.696 14.299 11.7821 14.6016 11.9961C15.9352 12.9397 17.4914 13.991 18.6307 15.482C18.7839 15.6835 18.8813 15.9233 18.9129 16.1764C18.9444 16.4295 18.9088 16.6866 18.8098 16.9208C18.0165 18.813 16.0091 20.4242 13.9211 20.3457Z" fill="#FCAE11"/>
</svg>
